<svg width="43" height="42" viewBox="0 0 43 42" fill="none" xmlns="http://www.w3.org/2000/svg">
<path d="M9.25 36.75C8.2875 36.75 7.46383 36.4076 6.779 35.7227C6.09417 35.0379 5.75117 34.2137 5.75 33.25V8.75C5.75 7.7875 6.093 6.96383 6.779 6.279C7.465 5.59417 8.28867 5.25117 9.25 5.25H25V14H28.5V17.5H37.25V33.25C37.25 34.2125 36.9076 35.0368 36.2227 35.7227C35.5379 36.4088 34.7137 36.7512 33.75 36.75H9.25ZM11 29.75H32L25.4375 21L20.1875 28L16.25 22.75L11 29.75ZM30.25 15.75V12.25H26.75V8.75H30.25V5.25H33.75V8.75H37.25V12.25H33.75V15.75H30.25Z" fill="#FEFEFE"/>
</svg>
