<svg width="32" height="25" viewBox="0 0 32 25" fill="none" xmlns="http://www.w3.org/2000/svg">
<path d="M6.26391 24.5V21.6765H8.54643L11.3639 12.3941C11.5541 11.7824 11.9051 11.2944 12.4167 10.9301C12.9284 10.5659 13.4928 10.3833 14.1101 10.3824H18.3898C19.008 10.3824 19.5729 10.5649 20.0846 10.9301C20.5962 11.2953 20.9467 11.7833 21.1359 12.3941L23.9534 21.6765H26.2359V24.5H6.26391ZM14.8234 7.55882V0.5H17.6765V7.55882H14.8234ZM23.3115 11.0529L21.2786 9.04118L26.3429 4.06471L28.3401 6.04118L23.3115 11.0529ZM24.8094 17.4412V14.6176H31.9422V17.4412H24.8094ZM9.18839 11.0529L4.15972 6.04118L6.15692 4.06471L11.2213 9.04118L9.18839 11.0529ZM0.557617 17.4412V14.6176H7.69048V17.4412H0.557617Z" fill="#F94A29"/>
</svg>
