<svg width="40" height="40" viewBox="0 0 40 40" fill="none" xmlns="http://www.w3.org/2000/svg">
<path d="M28.3333 26.6667L35 20.0001M35 20.0001L28.3333 13.3334M35 20.0001H11.6667M21.6667 26.6667V28.3334C21.6667 29.6595 21.1399 30.9313 20.2022 31.8689C19.2645 32.8066 17.9927 33.3334 16.6667 33.3334H10C8.67392 33.3334 7.40215 32.8066 6.46447 31.8689C5.52678 30.9313 5 29.6595 5 28.3334V11.6667C5 10.3407 5.52678 9.0689 6.46447 8.13121C7.40215 7.19353 8.67392 6.66675 10 6.66675H16.6667C17.9927 6.66675 19.2645 7.19353 20.2022 8.13121C21.1399 9.0689 21.6667 10.3407 21.6667 11.6667V13.3334" stroke="#3F3F46" stroke-width="2" stroke-linecap="round" stroke-linejoin="round"/>
</svg>
