<svg width="40" height="40" viewBox="0 0 40 40" fill="none" xmlns="http://www.w3.org/2000/svg">
<path d="M24.7142 16.3807C25.9645 15.1305 26.6668 13.4348 26.6668 11.6667C26.6668 9.89856 25.9645 8.20286 24.7142 6.95262C23.464 5.70238 21.7683 5 20.0002 5C18.2321 5 16.5364 5.70238 15.2861 6.95262C14.0359 8.20286 13.3335 9.89856 13.3335 11.6667C13.3335 13.4348 14.0359 15.1305 15.2861 16.3807C16.5364 17.631 18.2321 18.3333 20.0002 18.3333C21.7683 18.3333 23.464 17.631 24.7142 16.3807Z" stroke="#3F3F46" stroke-width="2" stroke-linecap="round" stroke-linejoin="round"/>
<path d="M11.7506 26.7504C13.9385 24.5625 16.906 23.3333 20.0002 23.3333C23.0944 23.3333 26.0618 24.5625 28.2497 26.7504C30.4377 28.9383 31.6668 31.9058 31.6668 35H8.3335C8.3335 31.9058 9.56266 28.9383 11.7506 26.7504Z" stroke="#3F3F46" stroke-width="2" stroke-linecap="round" stroke-linejoin="round"/>
</svg>
