<svg width="238" height="148" viewBox="0 0 238 148" fill="none" xmlns="http://www.w3.org/2000/svg">
<path d="M48.6 86.3C43.9 86.3 39.2 85.9 34.5 85.1C29.8 84.2 25.55 82.65 21.75 80.45C17.95 78.15 14.85 75 12.45 71C10.15 66.9 9 61.7 9 55.4C9 49 10.7 43.65 14.1 39.35C17.5 34.95 21.65 31.35 26.55 28.55C26.35 27.95 26.25 27.35 26.25 26.75C26.25 24.65 26.9 22.85 28.2 21.35C29.6 19.85 31.6 19.1 34.2 19.1C35.7 19.1 37.7 19.25 40.2 19.55C42.7 19.75 45.5 20.15 48.6 20.75C51.6 20.15 54.35 19.75 56.85 19.55C59.35 19.25 61.4 19.1 63 19.1C65.6 19.1 67.55 19.85 68.85 21.35C70.25 22.85 70.95 24.65 70.95 26.75C70.95 27.35 70.85 27.95 70.65 28.55C75.55 31.35 79.7 34.95 83.1 39.35C86.5 43.65 88.2 49 88.2 55.4C88.2 61.7 87 66.9 84.6 71C82.3 75 79.25 78.15 75.45 80.45C71.65 82.65 67.4 84.2 62.7 85.1C58 85.9 53.3 86.3 48.6 86.3ZM118.8 128C118.8 130.4 117.95 132.35 116.25 133.85C114.65 135.35 112.2 136.1 108.9 136.1C105.6 136.1 103.1 135.35 101.4 133.85C99.8 132.35 99 130.4 99 128V24.05C99 21.65 99.8 19.7 101.4 18.2C103.1 16.7 105.6 15.95 108.9 15.95C112.2 15.95 114.65 16.7 116.25 18.2C117.95 19.7 118.8 21.65 118.8 24.05V128ZM59.4 109.1V128C59.4 130.4 58.55 132.35 56.85 133.85C55.25 135.35 52.8 136.1 49.5 136.1C46.2 136.1 43.7 135.35 42 133.85C40.4 132.35 39.6 130.4 39.6 128V109.1H12.6C10.2 109.1 8.25 108.55 6.75 107.45C5.25 106.35 4.5 104.35 4.5 101.45C4.5 98.55 5.25 96.55 6.75 95.45C8.25 94.35 10.2 93.8 12.6 93.8H86.4C88.8 93.8 90.75 94.35 92.25 95.45C93.75 96.55 94.5 98.55 94.5 101.45C94.5 104.35 93.75 106.35 92.25 107.45C90.75 108.55 88.8 109.1 86.4 109.1H59.4ZM68.4 55.4C68.4 52.1 67.85 49.35 66.75 47.15C65.65 44.95 64.15 43.15 62.25 41.75C60.45 40.25 58.35 39.1 55.95 38.3C53.55 37.5 51.1 36.85 48.6 36.35C46 36.85 43.5 37.5 41.1 38.3C38.8 39.1 36.7 40.25 34.8 41.75C33 43.15 31.55 44.95 30.45 47.15C29.35 49.35 28.8 52.1 28.8 55.4C28.8 58.5 29.3 61.05 30.3 63.05C31.3 65.05 32.7 66.65 34.5 67.85C36.3 69.05 38.4 69.9 40.8 70.4C43.2 70.8 45.8 71 48.6 71C51.4 71 54 70.8 56.4 70.4C58.8 69.9 60.9 69.05 62.7 67.85C64.5 66.65 65.9 65.05 66.9 63.05C67.9 61.05 68.4 58.5 68.4 55.4Z" fill="#3897F5"/>
<path d="M228.15 128C228.15 130.4 227.3 132.35 225.6 133.85C224 135.35 221.55 136.1 218.25 136.1C214.95 136.1 212.45 135.35 210.75 133.85C209.15 132.35 208.35 130.4 208.35 128V24.05C208.35 21.65 209.15 19.7 210.75 18.2C212.45 16.7 214.95 15.95 218.25 15.95C221.55 15.95 224 16.7 225.6 18.2C227.3 19.7 228.15 21.65 228.15 24.05V128Z" fill="#3897F5"/>
<path d="M202.962 102.134H199.579C193.251 102.134 187.274 100.301 182.003 97.0562C185.32 91.6863 187.948 85.809 189.829 79.5399C192.068 72.082 193.203 64.2315 193.203 56.2061C193.203 39.2747 181.664 25.5 167.481 25.5C153.297 25.5 141.759 39.2747 141.759 56.2063C141.759 71.1036 145.687 85.2793 152.956 97.0514C147.539 100.385 141.521 102.134 135.383 102.134H132L134.422 113.645L132.008 125.23H135.383C146.936 125.23 157.99 121.227 167.475 113.637C176.899 121.178 187.978 125.23 199.579 125.23H202.953L200.539 113.645L202.962 102.134ZM138.785 118.803L139.861 113.637L138.734 108.28C144.911 107.714 150.909 105.585 156.343 102.032C157.1 103.048 157.882 104.044 158.694 105.013C160.059 106.643 161.481 108.182 162.954 109.626C155.657 115.021 147.415 118.152 138.785 118.803ZM196.177 118.803C183.422 117.836 171.543 111.444 162.424 100.559C152.5 88.7121 147.035 72.9607 147.035 56.2063C147.035 42.7478 156.207 31.7987 167.481 31.7987C178.755 31.7987 187.927 42.7478 187.927 56.2063C187.927 69.9847 184.32 82.9141 177.472 93.7767C175.047 91.7371 172.827 89.3718 170.858 86.7345C176.209 77.8816 179.133 67.1406 179.133 56.2063C179.133 48.5365 173.906 42.2966 167.481 42.2966C161.056 42.2966 155.829 48.5365 155.829 56.2063C155.829 83.6578 173.664 106.231 196.228 108.281L195.1 113.637L196.177 118.803ZM167.481 81.5038C163.453 74.2445 161.105 65.5468 161.105 56.2063C161.105 52.0096 163.965 48.5953 167.481 48.5953C170.996 48.5953 173.857 52.0096 173.857 56.2063C173.856 65.3344 171.663 73.9997 167.481 81.5038Z" fill="#FFE81C"/>
<path d="M202.962 102.134H199.579C193.251 102.134 187.274 100.301 182.003 97.0562C185.32 91.6863 187.948 85.809 189.829 79.5399C192.068 72.082 193.203 64.2315 193.203 56.2061C193.203 39.2747 181.664 25.5 167.481 25.5C153.297 25.5 141.759 39.2747 141.759 56.2063C141.759 71.1036 145.687 85.2793 152.956 97.0514C147.539 100.385 141.521 102.134 135.383 102.134H132L134.422 113.645L132.008 125.23H135.383C146.936 125.23 157.99 121.227 167.475 113.637C176.899 121.178 187.978 125.23 199.579 125.23H202.953L200.539 113.645L202.962 102.134ZM138.785 118.803L139.861 113.637L138.734 108.28C144.911 107.714 150.909 105.585 156.343 102.032C157.1 103.048 157.882 104.044 158.694 105.013C160.059 106.643 161.481 108.182 162.954 109.626C155.657 115.021 147.415 118.152 138.785 118.803ZM196.177 118.803C183.422 117.836 171.543 111.444 162.424 100.559C152.5 88.7121 147.035 72.9607 147.035 56.2063C147.035 42.7478 156.207 31.7987 167.481 31.7987C178.755 31.7987 187.927 42.7478 187.927 56.2063C187.927 69.9847 184.32 82.9141 177.472 93.7767C175.047 91.7371 172.827 89.3718 170.858 86.7345C176.209 77.8816 179.133 67.1406 179.133 56.2063C179.133 48.5365 173.906 42.2966 167.481 42.2966C161.056 42.2966 155.829 48.5365 155.829 56.2063C155.829 83.6578 173.664 106.231 196.228 108.281L195.1 113.637L196.177 118.803ZM167.481 81.5038C163.453 74.2445 161.105 65.5468 161.105 56.2063C161.105 52.0096 163.965 48.5953 167.481 48.5953C170.996 48.5953 173.857 52.0096 173.857 56.2063C173.856 65.3344 171.663 73.9997 167.481 81.5038Z" fill="url(#paint0_linear_559_2109)"/>
<rect x="34" y="46.5" width="10" height="10" rx="5" fill="#3897F5"/>
<rect x="34" y="49" width="5" height="5" rx="2.5" fill="white"/>
<rect x="54" y="46.5" width="10" height="10" rx="5" fill="#3897F5"/>
<rect x="54" y="49" width="5" height="5" rx="2.5" fill="white"/>
<defs>
<linearGradient id="paint0_linear_559_2109" x1="167.481" y1="25.5" x2="167.481" y2="125.23" gradientUnits="userSpaceOnUse">
<stop stop-color="#FFE81C"/>
<stop offset="1" stop-color="#3897F5"/>
</linearGradient>
</defs>
</svg>
