<svg width="52" height="33" viewBox="0 0 52 33" fill="none" xmlns="http://www.w3.org/2000/svg">
<path d="M10.368 18.704C9.36533 18.704 8.36267 18.6187 7.36 18.448C6.35733 18.256 5.45067 17.9253 4.64 17.456C3.82933 16.9653 3.168 16.2933 2.656 15.44C2.16533 14.5653 1.92 13.456 1.92 12.112C1.92 10.7467 2.28267 9.60533 3.008 8.688C3.73333 7.74933 4.61867 6.98133 5.664 6.384C5.62133 6.256 5.6 6.128 5.6 6C5.6 5.552 5.73867 5.168 6.016 4.848C6.31467 4.528 6.74133 4.368 7.296 4.368C7.616 4.368 8.04267 4.4 8.576 4.464C9.10933 4.50667 9.70667 4.592 10.368 4.72C11.008 4.592 11.5947 4.50667 12.128 4.464C12.6613 4.4 13.0987 4.368 13.44 4.368C13.9947 4.368 14.4107 4.528 14.688 4.848C14.9867 5.168 15.136 5.552 15.136 6C15.136 6.128 15.1147 6.256 15.072 6.384C16.1173 6.98133 17.0027 7.74933 17.728 8.688C18.4533 9.60533 18.816 10.7467 18.816 12.112C18.816 13.456 18.56 14.5653 18.048 15.44C17.5573 16.2933 16.9067 16.9653 16.096 17.456C15.2853 17.9253 14.3787 18.256 13.376 18.448C12.3733 18.6187 11.3707 18.704 10.368 18.704ZM25.344 27.6C25.344 28.112 25.1627 28.528 24.8 28.848C24.4587 29.168 23.936 29.328 23.232 29.328C22.528 29.328 21.9947 29.168 21.632 28.848C21.2907 28.528 21.12 28.112 21.12 27.6V5.424C21.12 4.912 21.2907 4.496 21.632 4.176C21.9947 3.856 22.528 3.696 23.232 3.696C23.936 3.696 24.4587 3.856 24.8 4.176C25.1627 4.496 25.344 4.912 25.344 5.424V27.6ZM12.672 23.568V27.6C12.672 28.112 12.4907 28.528 12.128 28.848C11.7867 29.168 11.264 29.328 10.56 29.328C9.856 29.328 9.32267 29.168 8.96 28.848C8.61867 28.528 8.448 28.112 8.448 27.6V23.568H2.688C2.176 23.568 1.76 23.4507 1.44 23.216C1.12 22.9813 0.96 22.5547 0.96 21.936C0.96 21.3173 1.12 20.8907 1.44 20.656C1.76 20.4213 2.176 20.304 2.688 20.304H18.432C18.944 20.304 19.36 20.4213 19.68 20.656C20 20.8907 20.16 21.3173 20.16 21.936C20.16 22.5547 20 22.9813 19.68 23.216C19.36 23.4507 18.944 23.568 18.432 23.568H12.672ZM14.592 12.112C14.592 11.408 14.4747 10.8213 14.24 10.352C14.0053 9.88267 13.6853 9.49867 13.28 9.2C12.896 8.88 12.448 8.63467 11.936 8.464C11.424 8.29333 10.9013 8.15466 10.368 8.048C9.81333 8.15466 9.28 8.29333 8.768 8.464C8.27733 8.63467 7.82933 8.88 7.424 9.2C7.04 9.49867 6.73067 9.88267 6.496 10.352C6.26133 10.8213 6.144 11.408 6.144 12.112C6.144 12.7733 6.25067 13.3173 6.464 13.744C6.67733 14.1707 6.976 14.512 7.36 14.768C7.744 15.024 8.192 15.2053 8.704 15.312C9.216 15.3973 9.77067 15.44 10.368 15.44C10.9653 15.44 11.52 15.3973 12.032 15.312C12.544 15.2053 12.992 15.024 13.376 14.768C13.76 14.512 14.0587 14.1707 14.272 13.744C14.4853 13.3173 14.592 12.7733 14.592 12.112Z" fill="#3897F5"/>
<path d="M50.312 27.6C50.312 28.112 50.1307 28.528 49.768 28.848C49.4267 29.168 48.904 29.328 48.2 29.328C47.496 29.328 46.9627 29.168 46.6 28.848C46.2587 28.528 46.088 28.112 46.088 27.6V5.424C46.088 4.912 46.2587 4.496 46.6 4.176C46.9627 3.856 47.496 3.696 48.2 3.696C48.904 3.696 49.4267 3.856 49.768 4.176C50.1307 4.496 50.312 4.912 50.312 5.424V27.6Z" fill="#3897F5"/>
<path d="M44 22.2791H43.2372C41.8104 22.2791 40.463 21.8657 39.2745 21.1341C40.0224 19.9233 40.6147 18.5981 41.039 17.1846C41.5437 15.503 41.7997 13.7329 41.7997 11.9234C41.7997 8.10583 39.198 5 36 5C32.802 5 30.2003 8.10583 30.2003 11.9235C30.2003 15.2824 31.0861 18.4787 32.7251 21.133C31.5036 21.8846 30.1467 22.2791 28.7628 22.2791H28L28.5462 24.8743L28.0018 27.4865H28.7628C31.3677 27.4865 33.86 26.584 35.9987 24.8727C38.1236 26.573 40.6216 27.4865 43.2372 27.4865H43.9981L43.4538 24.8743L44 22.2791ZM29.5298 26.0375L29.7725 24.8727L29.5183 23.6648C30.9111 23.5372 32.2636 23.0571 33.4887 22.256C33.6594 22.485 33.8357 22.7096 34.0187 22.9282C34.3266 23.2957 34.6472 23.6426 34.9793 23.9683C33.334 25.1847 31.4756 25.8906 29.5298 26.0375ZM42.4702 26.0373C39.5943 25.8194 36.9158 24.3782 34.8599 21.9239C32.6223 19.2527 31.39 15.7012 31.39 11.9235C31.39 8.88893 33.4581 6.4202 36 6.4202C38.5419 6.4202 40.61 8.88893 40.61 11.9235C40.61 15.0302 39.7968 17.9454 38.2528 20.3946C37.706 19.9348 37.2055 19.4014 36.7615 18.8068C37.9679 16.8107 38.6273 14.3889 38.6273 11.9235C38.6273 10.1941 37.4487 8.7872 36 8.7872C34.5514 8.7872 33.3728 10.1941 33.3728 11.9235C33.3728 18.1131 37.3942 23.2027 42.4817 23.6651L42.2275 24.8727L42.4702 26.0373ZM36.0001 17.6274C35.0918 15.9906 34.5625 14.0295 34.5625 11.9235C34.5625 10.9772 35.2074 10.2074 36 10.2074C36.7927 10.2074 37.4376 10.9772 37.4376 11.9235C37.4375 13.9816 36.9429 15.9354 36.0001 17.6274Z" fill="url(#paint0_linear_540_2054)"/>
<rect x="12" y="10" width="2" height="2" rx="1" fill="#3897F5"/>
<rect x="12" y="10.5" width="1" height="1" rx="0.5" fill="white"/>
<rect x="7" y="10" width="2" height="2" rx="1" fill="#3897F5"/>
<rect x="7" y="10.5" width="1" height="1" rx="0.5" fill="white"/>
<defs>
<linearGradient id="paint0_linear_540_2054" x1="36" y1="5" x2="36" y2="27.4865" gradientUnits="userSpaceOnUse">
<stop stop-color="#FFE81C"/>
<stop offset="1" stop-color="#3897F5"/>
</linearGradient>
</defs>
</svg>
