<svg width="116" height="69" viewBox="0 0 116 69" fill="none" xmlns="http://www.w3.org/2000/svg">
<path d="M22.68 40.04C20.4867 40.04 18.2933 39.8533 16.1 39.48C13.9067 39.06 11.9233 38.3367 10.15 37.31C8.37667 36.2367 6.93 34.7667 5.81 32.9C4.73667 30.9867 4.2 28.56 4.2 25.62C4.2 22.6333 4.99333 20.1367 6.58 18.13C8.16667 16.0767 10.1033 14.3967 12.39 13.09C12.2967 12.81 12.25 12.53 12.25 12.25C12.25 11.27 12.5533 10.43 13.16 9.73C13.8133 9.03 14.7467 8.68 15.96 8.68C16.66 8.68 17.5933 8.75 18.76 8.89C19.9267 8.98333 21.2333 9.17 22.68 9.45C24.08 9.17 25.3633 8.98333 26.53 8.89C27.6967 8.75 28.6533 8.68 29.4 8.68C30.6133 8.68 31.5233 9.03 32.13 9.73C32.7833 10.43 33.11 11.27 33.11 12.25C33.11 12.53 33.0633 12.81 32.97 13.09C35.2567 14.3967 37.1933 16.0767 38.78 18.13C40.3667 20.1367 41.16 22.6333 41.16 25.62C41.16 28.56 40.6 30.9867 39.48 32.9C38.4067 34.7667 36.9833 36.2367 35.21 37.31C33.4367 38.3367 31.4533 39.06 29.26 39.48C27.0667 39.8533 24.8733 40.04 22.68 40.04ZM55.44 59.5C55.44 60.62 55.0433 61.53 54.25 62.23C53.5033 62.93 52.36 63.28 50.82 63.28C49.28 63.28 48.1133 62.93 47.32 62.23C46.5733 61.53 46.2 60.62 46.2 59.5V10.99C46.2 9.87 46.5733 8.96 47.32 8.26C48.1133 7.56 49.28 7.21 50.82 7.21C52.36 7.21 53.5033 7.56 54.25 8.26C55.0433 8.96 55.44 9.87 55.44 10.99V59.5ZM27.72 50.68V59.5C27.72 60.62 27.3233 61.53 26.53 62.23C25.7833 62.93 24.64 63.28 23.1 63.28C21.56 63.28 20.3933 62.93 19.6 62.23C18.8533 61.53 18.48 60.62 18.48 59.5V50.68H5.88C4.76 50.68 3.85 50.4233 3.15 49.91C2.45 49.3967 2.1 48.4633 2.1 47.11C2.1 45.7567 2.45 44.8233 3.15 44.31C3.85 43.7967 4.76 43.54 5.88 43.54H40.32C41.44 43.54 42.35 43.7967 43.05 44.31C43.75 44.8233 44.1 45.7567 44.1 47.11C44.1 48.4633 43.75 49.3967 43.05 49.91C42.35 50.4233 41.44 50.68 40.32 50.68H27.72ZM31.92 25.62C31.92 24.08 31.6633 22.7967 31.15 21.77C30.6367 20.7433 29.9367 19.9033 29.05 19.25C28.21 18.55 27.23 18.0133 26.11 17.64C24.99 17.2667 23.8467 16.9633 22.68 16.73C21.4667 16.9633 20.3 17.2667 19.18 17.64C18.1067 18.0133 17.1267 18.55 16.24 19.25C15.4 19.9033 14.7233 20.7433 14.21 21.77C13.6967 22.7967 13.44 24.08 13.44 25.62C13.44 27.0667 13.6733 28.2567 14.14 29.19C14.6067 30.1233 15.26 30.87 16.1 31.43C16.94 31.99 17.92 32.3867 19.04 32.62C20.16 32.8067 21.3733 32.9 22.68 32.9C23.9867 32.9 25.2 32.8067 26.32 32.62C27.44 32.3867 28.42 31.99 29.26 31.43C30.1 30.87 30.7533 30.1233 31.22 29.19C31.6867 28.2567 31.92 27.0667 31.92 25.62Z" fill="#3897F5"/>
<path d="M112.87 59.5C112.87 60.62 112.473 61.53 111.68 62.23C110.933 62.93 109.79 63.28 108.25 63.28C106.71 63.28 105.543 62.93 104.75 62.23C104.003 61.53 103.63 60.62 103.63 59.5V10.99C103.63 9.87 104.003 8.96 104.75 8.26C105.543 7.56 106.71 7.21 108.25 7.21C109.79 7.21 110.933 7.56 111.68 8.26C112.473 8.96 112.87 9.87 112.87 10.99V59.5Z" fill="#3897F5"/>
<path d="M99 47.9579H97.2361C93.9366 47.9579 90.8206 47.002 88.0722 45.3101C89.8018 42.5102 91.1716 39.4457 92.1527 36.1769C93.3199 32.2883 93.9118 28.1949 93.9118 24.0104C93.9118 15.1822 87.8953 8 80.5 8C73.1047 8 67.0882 15.1822 67.0882 24.0105C67.0882 31.7781 69.1366 39.1695 72.9268 45.3075C70.102 47.0455 66.9643 47.9579 63.7639 47.9579H62L63.263 53.9594L62.0042 60H63.7639C69.7877 60 75.5513 57.9131 80.4971 53.9556C85.4109 57.8876 91.1874 60 97.2361 60H98.9957L97.7369 53.9594L99 47.9579ZM65.5376 56.6491L66.0989 53.9556L65.5111 51.1623C68.7319 50.8673 71.8595 49.7571 74.6925 47.9046C75.0874 48.4341 75.495 48.9534 75.9184 49.4589C76.6303 50.3088 77.3717 51.1111 78.1397 51.8642C74.3349 54.6772 70.0373 56.3095 65.5376 56.6491ZM95.4624 56.6488C88.8119 56.1448 82.6178 52.8121 77.8636 47.1366C72.6891 40.9593 69.8394 32.7464 69.8394 24.0105C69.8394 16.9932 74.6217 11.2842 80.5 11.2842C86.3783 11.2842 91.1606 16.9932 91.1606 24.0105C91.1606 31.1947 89.2802 37.9362 85.7096 43.6001C84.445 42.5366 83.2876 41.3033 82.2609 39.9282C85.0507 35.3123 86.5755 29.7118 86.5755 24.0105C86.5755 20.0115 83.8501 16.7579 80.5001 16.7579C77.1501 16.7579 74.4247 20.0115 74.4247 24.0105C74.4247 38.324 83.7241 50.0938 95.4889 51.163L94.9012 53.9555L95.4624 56.6488ZM80.5002 37.2009C78.3998 33.4158 77.1758 28.8808 77.1758 24.0105C77.1758 21.8224 78.6671 20.0421 80.5001 20.0421C82.3331 20.0421 83.8244 21.8224 83.8244 24.0105C83.8243 28.77 82.6806 33.2882 80.5002 37.2009Z" fill="url(#paint0_linear_540_2053)"/>
<rect x="15" y="21" width="5" height="5" rx="2.5" fill="#3897F5"/>
<rect x="15" y="22.5" width="2" height="2" rx="1" fill="white"/>
<rect x="25" y="21" width="5" height="5" rx="2.5" fill="#3897F5"/>
<rect x="25" y="22.5" width="2" height="2" rx="1" fill="white"/>
<defs>
<linearGradient id="paint0_linear_540_2053" x1="80.5" y1="8" x2="80.5" y2="60" gradientUnits="userSpaceOnUse">
<stop stop-color="#FFE81C"/>
<stop offset="1" stop-color="#3897F5"/>
</linearGradient>
</defs>
</svg>
